Coordinates
version=1
nRows=19
nColumns=63
inDegrees=yes

Units are S.I. units (second, meters, Newtons, ...)
If the header above contains a line with 'inDegrees', this indicates whether rotational values are in degrees (yes) or radians (no).

endheader
time	pelvis_tilt	pelvis_list	pelvis_rotation	pelvis_tx	pelvis_ty	pelvis_tz	hip_flexion_r	hip_adduction_r	hip_rotation_r	knee_angle_r	knee_angle_r_beta	ankle_angle_r	subtalar_angle_r	mtp_angle_r	hip_flexion_l	hip_adduction_l	hip_rotation_l	knee_angle_l	knee_angle_l_beta	ankle_angle_l	subtalar_angle_l	mtp_angle_l	L5_S1_Flex_Ext	L5_S1_Lat_Bending	L5_S1_axial_rotation	L4_L5_Flex_Ext	L4_L5_Lat_Bending	L4_L5_axial_rotation	L3_L4_Flex_Ext	L3_L4_Lat_Bending	L3_L4_axial_rotation	L2_L3_Flex_Ext	L2_L3_Lat_Bending	L2_L3_axial_rotation	L1_L2_Flex_Ext	L1_L2_Lat_Bending	L1_L2_axial_rotation	L1_T12_Flex_Ext	L1_T12_Lat_Bending	L1_T12_axial_rotation	Abs_r3	Abs_r2	Abs_r1	Abs_t1	Abs_t2	neck_flexion	neck_bending	neck_rotation	arm_flex_r	arm_add_r	arm_rot_r	elbow_flex_r	pro_sup_r	wrist_flex_r	wrist_dev_r	arm_flex_l	arm_add_l	arm_rot_l	elbow_flex_l	pro_sup_l	wrist_flex_l	wrist_dev_l
2.474576	2.983719	-6.166495	94.593030	0.165657	0.695060	0.503985	3.715321	4.120976	-12.136563	12.785398	0.223147	31.572684	-1.812347	0.000000	0.161407	-2.860003	-2.490426	6.702839	0.116987	29.856915	8.831825	0.000000	0.001370	0.729690	-1.659444	0.002545	0.970488	-1.763159	0.002251	1.774169	-1.763159	0.001566	1.774169	-1.452013	0.001273	1.487985	-1.348298	0.000783	1.130290	-1.244583	0.009789	8.254404	-9.229328	0.000000	0.000000	12.958648	0.639368	13.019423	7.543633	-9.388432	48.072658	44.738901	62.572252	12.966721	11.721794	7.767037	-5.428585	54.059661	43.505977	42.216015	0.296483	-2.330758
2.491525	3.007835	-6.214513	94.677009	0.165743	0.694843	0.504661	3.807836	4.161453	-12.122243	12.755228	0.222621	31.600328	-1.854285	0.000000	0.075155	-2.871513	-2.359441	6.303091	0.110010	29.665379	8.966337	0.000000	0.005024	0.729825	-1.676164	0.009330	0.970668	-1.780924	0.008254	1.774498	-1.780924	0.005742	1.774498	-1.466643	0.004665	1.488260	-1.361883	0.002871	1.130500	-1.257123	0.035886	8.255932	-9.322319	0.000000	0.000000	12.655180	0.895304	13.356024	7.308703	-9.309000	47.586820	44.806807	62.755432	12.743221	11.632548	7.414696	-5.363049	52.866463	43.751043	43.296525	0.267309	-1.825014
2.508475	3.028397	-6.268712	94.752635	0.165820	0.694608	0.505407	3.894693	4.200824	-12.081735	12.689470	0.221473	31.620388	-1.903904	0.000000	-0.016291	-2.876128	-2.213998	5.870097	0.102453	29.465623	9.079223	0.000000	0.006081	0.728934	-1.690080	0.011293	0.969482	-1.795710	0.009991	1.772329	-1.795710	0.006950	1.772329	-1.478820	0.005647	1.486441	-1.373190	0.003475	1.129118	-1.267560	0.043436	8.245843	-9.399718	0.000000	0.000000	12.455217	1.214659	13.594430	7.173674	-9.261857	47.343425	44.845262	62.655903	12.588339	11.535418	7.085949	-5.310355	51.796126	44.027593	44.037941	0.225850	-1.373782
2.525424	3.062700	-6.343599	94.808960	0.165872	0.694343	0.506175	4.003484	4.247127	-12.031163	12.619570	0.220253	31.659392	-1.906874	0.000000	-0.104825	-2.893278	-2.244035	5.395898	0.094176	29.291206	9.407958	0.000000	0.008087	0.730399	-1.704578	0.015018	0.971431	-1.811114	0.013286	1.775893	-1.811114	0.009242	1.775893	-1.491506	0.007509	1.489430	-1.384969	0.004621	1.131388	-1.278433	0.057763	8.262422	-9.480350	0.000000	0.000000	12.316489	1.483992	13.756413	7.158070	-9.276584	47.437066	44.851581	62.284491	12.506197	11.333012	6.708828	-5.227992	50.550153	44.320492	45.153764	0.163236	-0.760798
2.542373	3.122824	-6.428093	94.873960	0.165859	0.694081	0.506939	4.108182	4.318876	-11.980541	12.513187	0.218396	31.672536	-1.914265	0.000000	-0.190746	-2.932138	-2.131405	4.899327	0.085509	29.105566	9.552210	0.000000	0.010555	0.735898	-1.716191	0.019602	0.978745	-1.823453	0.017341	1.789263	-1.823453	0.012064	1.789263	-1.501667	0.009802	1.500644	-1.394405	0.006031	1.139906	-1.287143	0.075396	8.324628	-9.544940	0.000000	0.000000	12.232105	1.674195	13.802833	7.169393	-9.344247	47.613376	44.863363	61.977688	12.503812	11.024148	6.402546	-5.135231	49.572255	44.552634	45.793741	0.194215	-0.201564
2.559322	3.201460	-6.515106	94.929391	0.165774	0.693840	0.507699	4.207766	4.406122	-11.909358	12.386285	0.216181	31.676126	-1.922876	0.000000	-0.279016	-2.982310	-1.912956	4.390369	0.076626	28.921201	9.501406	0.000000	0.012714	0.745098	-1.725035	0.023612	0.990981	-1.832850	0.020888	1.811632	-1.832850	0.014531	1.811632	-1.509406	0.011806	1.519404	-1.401591	0.007265	1.154157	-1.293776	0.090817	8.428700	-9.594129	0.000000	0.000000	12.180651	1.763221	13.729278	7.196301	-9.455730	47.833232	44.886693	61.707474	12.559835	10.669853	6.178101	-5.029003	48.875956	44.709781	45.963016	0.309142	0.342637
2.576271	3.301546	-6.598030	94.953117	0.165631	0.693644	0.508440	4.304071	4.511066	-11.807175	12.260258	0.213982	31.662708	-1.940983	0.000000	-0.369062	-3.046851	-1.582407	3.892341	0.067934	28.755822	9.239050	0.000000	0.014489	0.758852	-1.730313	0.026907	1.009273	-1.838458	0.023803	1.845073	-1.838458	0.016559	1.845073	-1.514024	0.013454	1.547451	-1.405880	0.008279	1.175462	-1.297735	0.103491	8.584286	-9.623483	0.000000	0.000000	12.106687	1.713315	13.542750	7.220642	-9.604350	48.050404	44.927105	61.478507	12.647836	10.327669	6.037099	-4.901010	48.453375	44.776097	45.699252	0.493755	0.927699
2.593220	3.422504	-6.667747	94.960435	0.165438	0.693509	0.509175	4.387340	4.634866	-11.686466	12.134699	0.211790	31.625395	-1.966502	0.000000	-0.461978	-3.126491	-1.035962	3.414196	0.059589	28.584209	8.658768	0.000000	0.014697	0.776949	-1.740930	0.027294	1.033342	-1.849738	0.024146	1.889074	-1.849738	0.016798	1.889074	-1.523314	0.013648	1.584354	-1.414506	0.008398	1.203494	-1.305698	0.104981	8.789003	-9.682532	0.000000	0.000000	12.007604	1.567666	13.326982	7.268933	-9.788328	48.351525	44.978839	61.281684	12.740711	9.926392	6.005000	-4.770663	48.378328	44.733515	44.969866	0.776924	1.536512
2.610169	3.553280	-6.711184	94.960373	0.165186	0.693464	0.509872	4.435911	4.766729	-11.588223	12.002437	0.209482	31.559758	-1.976416	0.000000	-0.564960	-3.215436	-0.490514	2.974145	0.051909	28.431582	8.062639	0.000000	0.012516	0.798016	-1.760541	0.023243	1.061361	-1.870575	0.020562	1.940296	-1.870575	0.014304	1.940296	-1.540473	0.011622	1.627314	-1.430439	0.007151	1.236127	-1.320406	0.089397	9.027317	-9.791600	0.000000	0.000000	11.856875	1.328893	13.097823	7.281605	-9.978771	48.593313	45.057559	61.142057	12.801013	9.524518	6.060059	-4.631312	48.629118	44.559838	43.866729	1.173641	2.044688
2.627119	3.693749	-6.734456	94.967046	0.164869	0.693492	0.510592	4.470046	4.905050	-11.513440	11.883840	0.207412	31.464712	-1.997508	0.000000	-0.645724	-3.317290	0.015973	2.614624	0.045634	28.309468	7.522872	0.000000	0.008550	0.821629	-1.794852	0.015878	1.092767	-1.907031	0.014047	1.997709	-1.907031	0.009772	1.997709	-1.570496	0.007940	1.675466	-1.458317	0.004886	1.272704	-1.346139	0.061072	9.294435	-9.982430	0.000000	0.000000	11.677699	1.029343	12.874018	7.305544	-10.177091	48.856687	45.137544	61.078832	12.902503	9.112605	6.230162	-4.511383	49.280801	44.271824	42.430669	1.671068	2.440557
2.644068	3.834858	-6.711289	94.962538	0.164541	0.693629	0.511260	4.457085	5.042119	-11.482029	11.784323	0.205675	31.352687	-1.973173	0.000000	-0.752593	-3.422540	0.526649	2.312224	0.040356	28.176037	6.949613	0.000000	0.000169	0.846340	-1.838095	0.000314	1.125632	-1.952975	0.000278	2.057791	-1.952975	0.000193	2.057791	-1.608333	0.000157	1.725857	-1.493452	0.000097	1.310981	-1.378571	0.001207	9.573967	-10.222930	0.000000	0.000000	11.441675	0.680776	12.660737	7.285820	-10.364063	49.045039	45.245691	60.963703	12.938460	8.760228	6.479032	-4.410158	50.263128	43.911319	40.552849	2.194286	2.784226
2.661017	3.976078	-6.665610	94.972321	0.164194	0.693819	0.511905	4.427517	5.180134	-11.469211	11.706928	0.204324	31.220244	-1.975421	0.000000	-0.834722	-3.533646	0.989166	2.110701	0.036839	28.060779	6.449480	0.000000	-0.009377	0.871879	-1.897450	-0.017413	1.159599	-2.016041	-0.015405	2.119887	-2.016041	-0.010717	2.119887	-1.660269	-0.008707	1.777936	-1.541678	-0.005358	1.350541	-1.423088	-0.066976	9.862871	-10.553048	0.000000	0.000000	11.155866	0.347456	12.566152	7.220596	-10.503794	49.041223	45.346261	61.261569	13.083741	8.458908	6.742741	-4.323500	51.329642	43.500190	39.169849	2.691777	3.037779
2.677966	4.111492	-6.594059	95.000586	0.163829	0.694064	0.512565	4.382105	5.311285	-11.494281	11.656981	0.203453	31.078752	-1.990469	0.000000	-0.885555	-3.647754	1.336033	2.028884	0.035411	27.982058	6.101445	0.000000	-0.020962	0.896838	-1.970572	-0.038929	1.192795	-2.093733	-0.034439	2.180572	-2.093733	-0.023958	2.180572	-1.724250	-0.019465	1.828832	-1.601090	-0.011978	1.389202	-1.477929	-0.149731	10.145213	-10.959730	0.000000	0.000000	10.829447	0.002087	12.519960	7.165142	-10.615442	49.022554	45.416615	61.716428	13.260472	8.168955	7.059338	-4.269981	52.562583	43.042011	38.133718	3.184179	3.172249
2.694915	4.247011	-6.504968	95.044217	0.163479	0.694342	0.513177	4.319671	5.445145	-11.536658	11.618701	0.202785	30.925821	-2.024679	0.000000	-0.921438	-3.770962	1.575244	2.020577	0.035266	27.916505	5.903734	0.000000	-0.032189	0.921788	-2.049942	-0.059779	1.225979	-2.178063	-0.052884	2.241236	-2.178063	-0.036789	2.241236	-1.793699	-0.029891	1.879711	-1.665578	-0.018393	1.427850	-1.537457	-0.229924	10.427455	-11.401163	0.000000	0.000000	10.420244	-0.308440	12.580359	7.056709	-10.690048	48.860776	45.470714	62.347103	13.456435	7.906054	7.418667	-4.237671	53.946786	42.539015	37.590109	3.649575	3.135664
2.711864	4.369634	-6.403802	95.108150	0.163156	0.694626	0.513798	4.255698	5.564427	-11.623378	11.610056	0.202634	30.776155	-2.073633	0.000000	-0.919500	-3.889762	1.717376	2.113838	0.036893	27.905502	5.834053	0.000000	-0.043899	0.944497	-2.134320	-0.081525	1.256181	-2.267715	-0.072122	2.296449	-2.267715	-0.050172	2.296449	-1.867530	-0.040765	1.926018	-1.734135	-0.025084	1.463025	-1.600740	-0.313566	10.684335	-11.870450	0.000000	0.000000	9.958926	-0.600186	12.702503	6.942045	-10.720289	48.648420	45.475897	63.206084	13.653806	7.611297	7.805450	-4.235644	55.382909	42.008599	37.640029	4.128376	2.979805
2.728814	4.478267	-6.292720	95.196791	0.162854	0.694913	0.514388	4.184983	5.666336	-11.756534	11.624499	0.202886	30.648045	-2.110765	0.000000	-0.898392	-4.002532	1.766902	2.263850	0.039512	27.922151	5.915151	0.000000	-0.054805	0.964720	-2.222431	-0.101779	1.283077	-2.361333	-0.090040	2.345620	-2.361333	-0.062637	2.345620	-1.944627	-0.050892	1.967256	-1.805725	-0.031316	1.494351	-1.666823	-0.391470	10.913102	-12.360495	0.000000	0.000000	9.389033	-0.846222	12.910492	6.843722	-10.717758	48.492460	45.425607	64.093573	13.796236	7.292087	8.208927	-4.263884	56.884987	41.492763	37.809803	4.529884	2.799477
2.745763	4.560670	-6.183672	95.294593	0.162629	0.695182	0.514945	4.116493	5.740785	-11.937990	11.655803	0.203432	30.524947	-2.151873	0.000000	-0.848527	-4.093793	1.742487	2.468682	0.043087	27.986190	6.075600	0.000000	-0.064214	0.980706	-2.318214	-0.119252	1.304339	-2.463102	-0.105498	2.384488	-2.463102	-0.073390	2.384488	-2.028437	-0.059629	1.999855	-1.883549	-0.036692	1.519113	-1.738660	-0.458676	11.093939	-12.893208	0.000000	0.000000	8.685143	-0.973063	13.304365	6.837286	-10.692180	48.623196	45.304841	64.687201	13.838468	6.985434	8.514293	-4.313300	58.134148	41.064256	37.927407	4.884526	2.761019
2.762712	4.610914	-6.067102	95.411460	0.162465	0.695458	0.515505	4.037972	5.778226	-12.209755	11.699316	0.204192	30.408763	-2.151695	0.000000	-0.779662	-4.158813	1.666689	2.720650	0.047484	28.077315	6.319238	0.000000	-0.074530	0.991067	-2.407629	-0.138409	1.318119	-2.558106	-0.122445	2.409680	-2.558106	-0.085180	2.409680	-2.106675	-0.069208	2.020984	-1.956198	-0.042586	1.535163	-1.805722	-0.532357	11.211147	-13.390509	0.000000	0.000000	7.873040	-1.021160	13.705164	6.874024	-10.657467	48.889120	45.153303	65.180007	13.807089	6.628778	8.816375	-4.405763	59.343372	40.702044	38.153480	5.163907	2.697152
2.779661	4.620710	-5.974499	95.524547	0.162425	0.695691	0.516080	3.993857	5.770329	-12.523205	11.776584	0.205540	30.315140	-2.137963	0.000000	-0.665150	-4.188622	1.481530	3.014365	0.052611	28.208807	6.681701	0.000000	-0.082480	0.994974	-2.491316	-0.153174	1.323316	-2.647023	-0.135506	2.419181	-2.647023	-0.094266	2.419181	-2.179901	-0.076591	2.028952	-2.024194	-0.047129	1.541215	-1.868487	-0.589147	11.255350	-13.855951	0.000000	0.000000	6.994413	-0.973190	14.182045	6.973078	-10.608068	49.309689	45.002970	65.452543	13.697701	6.389141	9.015616	-4.537983	60.250704	40.488230	38.360224	5.316306	2.714684
